<?xml version="1.0" encoding="utf-8"?>
<!-- Generator: Adobe Illustrator 24.0.1, SVG Export Plug-In . SVG Version: 6.00 Build 0)  -->
<svg version="1.1" id="Capa_1" xmlns="http://www.w3.org/2000/svg" xmlns:xlink="http://www.w3.org/1999/xlink" x="0px" y="0px"
	 viewBox="0 0 22.7 30.3" style="enable-background:new 0 0 22.7 30.3;" xml:space="preserve">
<style type="text/css">
	.st0{fill:#5D8CD5;}
</style>
<g id="Guides__x26__Forms">
</g>
<g id="Icons">
	<g>
		<path class="st0" d="M11.5,20.5c3,0,5.4-2.4,5.4-5.4V5.7c0-3-2.4-5.4-5.4-5.4S6.1,2.7,6.1,5.7v9.4C6.1,18.1,8.5,20.5,11.5,20.5z
			 M8.8,5.7C8.8,4.2,10,3,11.5,3c1.5,0,2.7,1.2,2.7,2.7v9.4c0,1.5-1.2,2.7-2.7,2.7c-1.5,0-2.7-1.2-2.7-2.7V5.7z"/>
		<path class="st0" d="M22.3,15.1h-2.7c0,4.5-3.6,8.1-8.1,8.1s-8.1-3.6-8.1-8.1H0.7c0,5.5,4.1,10,9.4,10.7v1.4H4.8V30h13.5v-2.7
			h-5.4v-1.4C18.2,25.2,22.3,20.6,22.3,15.1z"/>
	</g>
</g>
</svg>
