<svg xmlns="http://www.w3.org/2000/svg" viewBox="-20 -20 140 81.64573724827616" xmlns:xlink="http://www.w3.org/1999/xlink" version="1.1"  ><rect width="100%" height="100%" x="-20" y="-20" fill="#FFFFFF" ></rect><g transform="translate(50 30.68633270925612) scale(0.10959404539020043)" id="verticalContainerlessSvgTemplate"><g fill="#000000"><g transform="translate(-456.2291666666668 98.61111111111111) scale(1.9290123456790123)" fill="#000000"><g id="line1" fill="#000000"><path d="M33.624-50.400L0-50.400L0-39.600L10.656-39.600L10.656 0L22.896 0L22.896-39.600L33.624-39.600L33.624-50.400Z"></path><path d="M89.158 0L61.150-50.400L61.150-50.400L61.150-50.400L33.142 0L89.158 0ZM52.654-10.800L61.150-28.872L69.646-10.800L52.654-10.800Z"></path><path d="M109.915 0.720C120.499 0.720 128.563-7.128 128.563-15.984C128.563-32.760 104.227-30.312 104.227-35.784C104.227-36.720 104.227-39.600 109.843-39.600C117.331-39.600 116.899-32.760 116.899-32.760L128.275-36.216C128.275-36.216 125.611-51.120 109.843-51.120C105.163-51.120 91.843-48.672 91.843-35.784C91.843-18.504 115.531-22.392 115.531-15.984C115.531-13.104 113.443-11.376 109.915-11.376C102.859-11.376 102.859-19.440 102.859-19.440L90.259-15.696C90.259-15.696 92.995 0.720 109.915 0.720Z"></path><path d="M158.105-28.728C163.505-32.904 166.889-39.240 166.889-47.016L166.889-50.400L154.649-50.400L154.649-47.016C154.649-41.544 151.553-36.360 146.945-33.768L146.945-50.400L134.705-50.400L134.705 0L134.705 0L146.945 0L146.945-21.456C153.209-20.088 157.889-14.544 157.889-7.848L157.889 0L170.129 0L170.129-7.848C170.129-17.136 165.377-24.552 158.105-28.728Z"></path><path d="M230.270-50.400L230.270-50.328L209.390-32.184L188.510-50.328L188.510-50.400L176.270-50.400L176.270 0L188.510 0L188.510-18.360L209.390-0.216L230.270-18.360L230.270 0L242.510 0L242.510-50.400L230.270-50.400ZM230.270-31.320L209.390-13.176L188.510-31.320L188.510-37.368L209.390-19.224L230.270-37.368L230.270-31.320Z"></path><path d="M304.668 0L276.660-50.400L276.660-50.400L276.660-50.400L248.652 0L304.668 0ZM268.164-10.800L276.660-28.872L285.156-10.800L268.164-10.800Z"></path><path d="M310.810 0L323.050 0L323.050-12.240L354.082-12.240L361.210 0L374.746 0L365.962-15.120C371.434-18.432 375.034-24.480 375.034-31.320C375.034-41.832 366.466-50.400 355.954-50.400L310.810-50.400L310.810 0ZM323.050-23.040L323.050-39.600L355.954-39.600C360.490-39.600 364.234-35.856 364.234-31.320C364.234-26.712 360.490-23.040 355.954-23.040L323.050-23.040Z"></path><path d="M381.175 0L417.175 0L417.175-10.800L381.175-10.800L381.175 0ZM393.199-16.128L405.295-16.128L405.439-16.128L417.391-50.400L405.151-50.400L399.247-29.952L393.415-50.400L381.175-50.400L393.055-16.128L393.199-16.128Z"></path><path d="M445.205-39.600L445.205-50.400L423.533-50.400L423.533 0L423.533 0L445.205 0L445.205-10.800L435.773-10.800L435.773-23.256L445.205-23.256L445.205-33.984L435.773-33.984L435.773-39.600L445.205-39.600Z"></path><path d="M473.018-10.800L463.586-10.800L463.586-50.400L451.346-50.400L451.346-50.400L451.346 0L473.018 0L473.018-10.800Z"></path></g></g><g transform="translate(-147.36118202579172 -305.59118087548177) scale(2.963314245603297)" id="logomark"><g fill="#000000"><path d="M13.572 36.355a3.616 3.616 0 0 0-3.615 3.616v21.694a3.614 3.614 0 0 0 3.615 3.615 3.615 3.615 0 0 0 3.616-3.615V39.971a3.617 3.617 0 0 0-3.616-3.616zm12.053-15.667a3.615 3.615 0 0 0-3.615 3.616v53.029a3.614 3.614 0 0 0 3.615 3.615 3.615 3.615 0 0 0 3.616-3.615V24.304a3.617 3.617 0 0 0-3.616-3.616zM37.677 8.636a3.616 3.616 0 0 0-3.616 3.616v77.133a3.615 3.615 0 0 0 7.232 0V12.252a3.617 3.617 0 0 0-3.616-3.616zm12.052 21.092a3.616 3.616 0 0 0-3.616 3.615v34.951a3.615 3.615 0 0 0 7.231 0V33.343a3.616 3.616 0 0 0-3.615-3.615zM61.78 8.636a3.616 3.616 0 0 0-3.615 3.616v77.133a3.615 3.615 0 0 0 7.23 0V12.252a3.615 3.615 0 0 0-3.615-3.616zm12.053 18.078a3.616 3.616 0 0 0-3.615 3.616v40.976a3.616 3.616 0 1 0 7.23 0V30.33a3.617 3.617 0 0 0-3.615-3.616zm12.052 10.244a3.617 3.617 0 0 0-3.616 3.616v20.489a3.616 3.616 0 0 0 7.231-.001V40.574a3.617 3.617 0 0 0-3.615-3.616z"></path></g></g></g></g></svg>